<?xml version="1.0" standalone="no"?><!DOCTYPE svg PUBLIC "-//W3C//DTD SVG 1.1//EN" "http://www.w3.org/Graphics/SVG/1.1/DTD/svg11.dtd"><svg t="1663295663312" class="icon" viewBox="0 0 1024 1024" version="1.1" xmlns="http://www.w3.org/2000/svg" p-id="8134" xmlns:xlink="http://www.w3.org/1999/xlink" width="200" height="200"><path d="M685.98 111c36.818 0 72.496 7.051 106.204 21.05 32.67 13.584 61.918 32.871 87.12 57.55 25.203 24.784 45.117 53.611 59.014 85.86 14.417 33.494 21.78 69.061 21.681 105.665 0 34.045-6.86 69.5-20.47 105.571l-0.588 1.546c-11.616 30.59-28.522 62.321-49.991 94.363-13.948 20.79-30.04 41.945-48.176 63.367l-2.669 3.137c-15.652 18.309-32.79 36.808-51.353 55.435l-3.196 3.195a1166.2 1166.2 0 0 1-8.112 7.997l-3.294 3.202a1211.47 1211.47 0 0 1-3.32 3.205l-3.349 3.207c-0.56 0.535-1.121 1.07-1.684 1.605l-3.39 3.21-1.704 1.605-3.43 3.213a1300.555 1300.555 0 0 1-5.198 4.823c-44.321 40.88-88.401 75.921-123.478 102.099l-4.523 3.364c-3.726 2.76-7.34 5.415-10.833 7.96l-4.132 3-4.01 2.893-1.959 1.406-3.82 2.73-1.86 1.323-3.62 2.562-3.48 2.449-3.338 2.334-3.19 2.218-1.539 1.065-2.96 2.041-2.803 1.921-2.64 1.8-2.473 1.676-3.387 2.282-2.987 1.996-2.572 1.706-3.327 2.185-2.675 1.733-24.58 15.762c-10.735 6.848-24.493 6.946-35.314 0.293l-0.468-0.293-24.58-15.762-0.919-0.58-2.326-1.5-1.284-0.837-3.148-2.072-2.853-1.896-3.258-2.184-2.39-1.613-2.558-1.737-2.724-1.86-1.422-0.975-2.963-2.04-1.54-1.065-3.192-2.218-1.651-1.152-3.412-2.393c-0.58-0.408-1.167-0.82-1.76-1.239l-3.621-2.562-3.756-2.675c-37.583-26.847-94.045-69.713-150.83-122.145l-3.472-3.215-1.725-1.608-3.43-3.213c-0.57-0.535-1.139-1.07-1.706-1.605l-3.39-3.21-3.361-3.208a1215.846 1215.846 0 0 1-4.992-4.809l-3.293-3.202a1182.59 1182.59 0 0 1-1.636-1.6l-3.252-3.2c-21.046-20.788-40.332-41.426-57.773-61.827l-2.67-3.137c-18.135-21.422-34.228-42.577-48.175-63.367-21.47-32.042-38.271-63.773-49.99-94.363C71.052 451.638 64 415.656 64 381.125c0-36.604 7.364-72.171 21.78-105.665 13.898-32.249 33.708-61.076 59.014-85.86 25.203-24.679 54.554-44.07 87.12-57.55C265.623 118.051 301.3 111 338.12 111c51.132 0 101.019 13.999 144.371 40.441a270.361 270.361 0 0 1 29.56 20.843 270.361 270.361 0 0 1 29.558-20.843C584.961 124.999 634.848 111 685.98 111z m0 82.076c-36.038 0-71.14 9.837-101.636 28.437a188.552 188.552 0 0 0-19.296 13.473l-1.302 1.046-51.697 41.924-51.697-41.924a188.3 188.3 0 0 0-20.6-14.52c-30.493-18.599-65.595-28.436-101.633-28.436-26.089 0-51.063 4.947-74.813 14.81-22.864 9.464-43.38 23.016-61.085 40.355-17.69 17.324-31.399 37.27-41.052 59.669-10.03 23.305-15.093 47.836-15.093 73.215 0 24.214 5.127 50.317 15.622 77.753 9.433 24.622 23.373 50.939 41.505 78 6.925 10.322 14.507 20.816 22.732 31.46l2.16 2.78a723.777 723.777 0 0 0 20.744 25.317l2.448 2.843a839.662 839.662 0 0 0 13.976 15.745l2.633 2.881a929.05 929.05 0 0 0 12.195 13.029l2.787 2.909 2.815 2.914a1034.17 1034.17 0 0 0 14.489 14.64l2.98 2.941 1.501 1.473 3.022 2.947 3.049 2.952c1.02 0.985 2.046 1.97 3.076 2.956l3.103 2.96c2.598 2.469 5.223 4.941 7.877 7.417l3.198 2.974 1.61 1.488c38.972 35.983 80.774 70.009 122.568 100.91l4.305 3.17 3.022 2.214 3.743 2.724 5.155 3.725 5.031 3.605 3.501 2.492 4.75 3.357 5.179 3.63 4.28 2.976 5.11 3.52 4.127 2.811 3.254 2.194 3.273 2.179 1.785 1.173 1.573 1.02 1.35 0.86 0.363 0.226 2.913-1.91 3.45-2.289 3.748-2.514 3.209-2.17 2.951-2.012 2.585-1.77 2.62-1.806 2.656-1.84 2.692-1.875 2.726-1.907 2.76-1.942 2.792-1.975 2.825-2.008 2.857-2.041c0.48-0.343 0.96-0.687 1.44-1.033l4.368-3.147 2.95-2.139 2.978-2.17 3.007-2.202 1.514-1.113c42.772-31.478 85.55-66.179 125.398-102.932 3.762-3.472 7.47-6.937 11.121-10.395l3.117-2.961c3.103-2.96 6.165-5.914 9.186-8.861l3.007-2.945 2.98-2.941 2.953-2.937c1.47-1.467 2.929-2.933 4.377-4.397l2.884-2.925c0.957-0.974 1.909-1.948 2.856-2.92l2.828-2.917c6.098-6.312 12-12.59 17.704-18.831l2.618-2.878a854.39 854.39 0 0 0 6.422-7.169l2.52-2.858a771.852 771.852 0 0 0 16.834-19.837l2.29-2.809 2.26-2.802a660.975 660.975 0 0 0 11.916-15.292l2.071-2.758a562.395 562.395 0 0 0 16.415-23.144c18.004-26.87 31.76-52.674 40.957-76.536l0.56-1.463c10.338-27.028 15.468-52.726 15.641-76.601v-1.423c0.068-25.22-4.96-49.676-14.98-72.952-9.434-21.893-22.9-41.606-40.236-58.88l-0.827-0.82c-17.678-17.311-38.114-30.805-61.176-40.394-23.661-9.826-48.636-14.773-74.725-14.773z" p-id="8135"/></svg>