<?xml version="1.0" standalone="no"?><!DOCTYPE svg PUBLIC "-//W3C//DTD SVG 1.1//EN" "http://www.w3.org/Graphics/SVG/1.1/DTD/svg11.dtd"><svg t="1756952711917" class="icon" viewBox="0 0 1048 1024" version="1.1" xmlns="http://www.w3.org/2000/svg" p-id="17756" xmlns:xlink="http://www.w3.org/1999/xlink" width="235.390625" height="230"><path d="M812.990725 143.523187c214.697307 106.128829 295.899283 347.686757 181.394869 539.529689-114.508494 191.830693-381.372685 261.340303-596.057753 155.182917-214.701386-106.120669 37.50043-172.860175 152.017083-364.686789 114.500335-191.855171 47.952574-436.154645 262.645801-330.025817z" fill="#6897DE" p-id="17757"/><path d="M665.824382 70.709036c194.017402 20.757418 349.326789 193.633912 346.899379 386.149992-2.443729 192.487522-161.677769 331.722964-355.699251 310.957386-194.001084-20.753339-43.942247-153.208351-41.527076-345.708111 2.43557-192.50792-143.674135-372.156685 50.326948-351.399267z" fill="#81B1E8" p-id="17758"/><path d="M819.485578 173.57004c71.455618 8.604048 126.85361 125.225817 123.748972 260.459091-3.129116 135.204717-63.577753 237.878056-135.033371 229.25361-71.463777-8.624446-14.486948-106.23898-11.361912-241.476335 3.116876-135.221036-48.817466-256.864892 22.646311-248.236366z" fill="#6897DE" opacity=".78" p-id="17759"/><path d="M311.206247 121.166534c135.347506-129.750183 358.563187-136.893705 498.553371-15.947474 139.969785 120.942151 143.727171 324.159235 8.387824 453.909418-135.335267 129.742024-139.806598-62.533355-279.80902-183.463267C398.356398 254.71898 175.87506 250.904478 311.206247 121.166534z" fill="#81B1E8" p-id="17760"/><path d="M439.136892 87.239904c85.844653-82.295331 237.037641-78.509386 337.724176 8.45718 100.629418 86.966566 112.648159 224.190725 26.807585 306.477896-85.840574 82.323888-97.830757-47.552765-198.505051-134.52749-100.657976-86.954327-251.89992-98.091857-166.02671-180.407586z" fill="#C9EDFF" opacity=".2" p-id="17761"/><path d="M498.002614 83.568191c60.220175-58.429195 175.352861-49.286629 257.113753 20.402486 81.752733 69.693195 99.238247 173.57412 39.001753 231.999235-60.252813 58.425116-77.244685-39.903363-159.013738-109.608796-81.769052-69.689116-197.358661-84.35557-137.101768-142.792925z" fill="#C9EDFF" fill-opacity=".2" p-id="17762"/><path d="M689.910821 825.674454c-122.977912 151.490805-352.529339 187.738773-512.734343 80.969434-160.176446-106.777498-190.370167-316.118183-67.404494-467.621227 122.965673-151.490805 152.465849 46.483888 312.666773 153.245068 160.196845 106.773418 390.437737 81.899602 267.472064 233.406725z" fill="#6897DE" p-id="17763"/><path d="M699.526629 768.558916c-122.969753 151.503044-352.525259 187.751012-512.734342 80.973514C26.611761 742.759012-3.57788 533.418327 119.383713 381.915283c122.965673-151.482645 152.465849 46.487968 312.662693 153.253227 160.209084 106.769339 390.449976 81.895522 267.480223 233.390406z" fill="#81B1E8" p-id="17764"/><path d="M594.793052 767.461482c-88.500526 109.025402-266.211442 126.800574-396.969307 39.68306-130.680351-87.121594-164.904797-246.14349-76.41243-355.177052 88.496446-109.05396 121.615299 41.351649 252.344605 128.481402 130.721147 87.121594 309.562135 77.958629 221.037132 187.01259z" fill="#6897DE" p-id="17765"/><path d="M487.93804 777.309833c-47.161116 58.119139-159.197323 56.054821-250.231331-4.601881-90.997291-60.66894-126.576191-156.953498-79.394677-215.068558 47.173355-58.131378 81.28357 33.008701 172.293099 93.681722 91.025849 60.660781 204.510343 67.865498 157.332909 125.988717z" fill="#A13A3A" fill-opacity=".8" p-id="17766"/><path d="M363.862693 820.835952c-16.861323 20.790056-66.861896 13.430311-111.677195-16.449275-44.786741-29.842869-67.449371-70.91302-50.588048-91.666358 16.845004-20.785976 38.512191 18.089307 83.307092 47.944414 44.815299 29.867347 95.835793 39.405641 78.958151 60.171219z" fill="#C9EDFF" fill-opacity=".2" p-id="17767"/><path d="M952.797323 526.193211c66.780303 205.322199-58.649498 420.129657-280.184351 479.807235-221.514454 59.6531-455.235315-58.404717-522.019697-263.714677-66.780303-205.30996 154.905498-94.4691 376.415872-154.146677 221.526693-59.665339 358.995633-267.272159 425.788176-61.945881z" fill="#81B1E8" p-id="17768"/><path d="M959.708303 550.26741c29.863267 169.013036-69.183235 331.714805-238.057562 376.84016-184.752446 49.364143-383.012717-20.22298-442.816765-245.817116-8.57141-32.323315-13.238566-55.112414-10.150247-72.128765-98.716048 1.366693-156.753594 14.250327-118.090454 133.12816 66.784382 205.30588 300.501163 323.367777 522.019697 263.714677 212.885928-57.34808 337.002072-257.962327 287.095331-455.737116z" fill="#6897DE" p-id="17769"/><path d="M925.940781 475.756112c57.658135 122.924876-18.607426 272.657339-170.302215 334.45635-151.711108 61.750056-321.466645 12.112574-379.132941-110.820462-57.682614-122.981992 103.285291-76.649052 254.992319-138.390948 151.719267-61.778614 236.764303-208.25141 294.442837-85.24494z" fill="#C9EDFF" fill-opacity=".2" p-id="17770"/><path d="M139.851474 697.98451s177.972016 78.958151 232.072669 0c0 0-253.017753-106.969243-253.017753-53.488701 0.00408 53.488701 20.945084 53.488701 20.945084 53.488701z" fill="#6897DE" p-id="17771"/><path d="M291.778805 732.510853c-187.351203-40.739697-301.582279-216.973769-255.163666-393.60357C83.029673 162.248924 272.526789 52.081211 459.865753 92.829068c187.347124 40.739697 8.485737 145.705817-37.936956 322.360095-46.410454 176.64204 57.184892 358.073625-130.149992 317.32169z" fill="#81B1E8" p-id="17772"/><path d="M531.545753 124.271171c11.284398 58.090582-108.425689 129.970486-164.113339 252.230375-75.706645 166.210295-4.385657 362.589833-182.088414 290.644653a357.180175 357.180175 0 0 1-85.76306-49.380462c46.479809 55.736606 112.721594 97.463586 192.201944 114.745116 187.334884 40.751936 83.735458-140.67557 130.149992-317.32169 37.316845-142.017785 160.176446-237.686311 109.612877-290.917992z" fill="#6897DE" fill-opacity=".34" p-id="17773"/><path d="M187.795888 630.52698C53.855873 561.506932 11.182406 390.082805 92.478215 247.652972 173.794422 105.259857 348.28239 45.761785 482.218327 114.794072c133.964494 69.032287-30.997418 126.033594-112.305466 268.459346-81.28357 142.401275-48.144319 316.326247-182.116973 247.273562z" fill="#C9EDFF" fill-opacity=".2" p-id="17774"/><path d="M134.135841 522.558215c-75.52306-39.099665-88.418932-155.015649-28.831108-258.859856C164.904797 159.882709 274.440159 107.38945 349.930582 146.509514c75.531219 39.124143-28.060048 89.263426-87.660112 193.099474-59.587825 103.848287-52.60341 222.065211-128.134629 182.949227z" fill="#C9EDFF" fill-opacity=".2" p-id="17775"/><path d="M599.41941 85.844653c22.352574-20.647267 78.056542-4.026645 124.413961 37.108781 46.361498 41.139506 65.833817 91.233912 43.477163 111.8771-22.360733 20.647267-41.008956-26.823904-87.366375-67.96341-46.357418-41.143586-102.885482-60.375203-80.524749-81.022471z" fill="#C9EDFF" fill-opacity=".37" p-id="17776"/><path d="M785.91796 590.321721c19.256096 40.009434-23.384733 96.798598-95.219761 126.837291-71.847267 30.030534-145.709896 21.932367-164.957832-18.081147-19.264255-40.025753 50.81651-32.600733 122.647458-62.627188 71.847267-30.038693 118.26588-86.162869 137.530135-46.128956z" fill="#C9EDFF" fill-opacity=".2" p-id="17777"/><path d="M926.401785 483.022024c68.452972 146.517673-12.79388 320.613992-181.423426 388.899697-168.645865 68.200032-360.892685 4.679394-429.361977-141.846438-68.48561-146.578869 113.78639-87.207267 282.424096-155.407299 168.654024-68.253068 259.871618-238.249307 328.361307-91.64596z" fill="#C9EDFF" fill-opacity=".2" p-id="17778"/><path d="M210.288803 700.814365a284.280351 311.185849 70.254 1 0 585.775995-210.268907 284.280351 311.185849 70.254 1 0-585.775995 210.268907Z" fill="#6897DE" p-id="17779"/><path d="M114.802231 413.904064c-26.007968-12.997865-19.235697-73.193562 15.123379-134.433658 34.350916-61.223777 83.290773-100.331602 109.290581-87.329657 26.007968 13.014183-20.329052 50.261673-54.684048 111.48953-34.359076 61.248255-43.726024 123.279809-69.729912 110.273785z" fill="#C9EDFF" fill-opacity=".37" p-id="17780"/><path d="M841.095649 506.692335c31.744 134.107283-73.719841 276.333131-235.577115 317.676621-161.840956 41.310853-318.782215-33.881753-350.542534-167.980876-31.74808-134.099124 117.192924-63.512478 279.03796-104.855968 161.853195-41.335331 275.33361-178.930741 307.081689-44.839777z" fill="#81B1E8" p-id="17781"/><path d="M792.433211 567.920191c24.225147 101.686056-55.267442 209.528351-177.555888 240.89702-122.272127 31.311554-241.035729-25.714231-265.260877-127.388048-24.245546-101.694215 88.480127-48.168797 210.784893-79.521147 122.263968-31.348271 207.818964-135.694279 232.031872-33.987825z" fill="#C9EDFF" fill-opacity=".2" p-id="17782"/><path d="M765.711299 612.376478c17.575267 71.663681-48.099442 150.793179-146.648223 176.703235-98.548781 25.897817-192.691506-11.190566-210.250454-82.854247-17.542629-71.68408 71.80239-36.904797 170.36341-62.818932 98.548781-25.922295 168.980398-102.726375 186.535267-31.030056z" fill="#C9EDFF" fill-opacity=".2" p-id="17783"/><path d="M592.51251 829.431841a339.017434 339.017434 0 0 0 47.071363-18.028112c-167.405641 25.391936-258.712988-7.624924-274.126024-140.483825-7.608606-65.53192 44.92545-49.470215 212.424924-74.911107 89.928414-13.666932 178.702279-112.542088 242.537052-171.383331-41.669865-91.246151-149.818135 44.497084-297.135427 88.471968-162.391713 48.482932-310.892112-32.947506-280.265944 122.545466 30.638406 155.488892 187.102343 242.243315 349.494056 193.788941z" fill="#6897DE" fill-opacity=".34" p-id="17784"/><path d="M712.610167 684.839777c5.670757 26.093641-36.117418 58.547506-93.334948 72.459219-57.201211 13.911713-108.184988 4.022566-113.847586-22.066996-5.658518-26.093641 42.759139-16.89396 99.956271-30.809753 57.22161-13.915793 101.559586-45.69243 107.226263-19.58247z" fill="#C9EDFF" fill-opacity=".2" p-id="17785"/><path d="M193.660289 384.712414a238.46553 237.066199 11.392 1 0 467.534928 94.203645 238.46553 237.066199 11.392 1 0-467.534928-94.203645Z" fill="#6897DE" p-id="17786"/><path d="M364.122849 454.637878a238.457371 237.06212 11.392 1 0 467.518931 94.200422 238.457371 237.06212 11.392 1 0-467.518931-94.200422Z" fill="#6897DE" p-id="17787"/><path d="M666.779028 232.011474c128.065275 45.627155 203.820876 184.393434 169.204781 309.945626-34.620175 125.535873-166.491793 190.321211-294.557068 144.702215-128.053036-45.623076-3.565641-107.499602 31.042295-233.043634 34.616096-125.548112-33.743044-267.223203 94.309992-221.604207z" fill="#81B1E8" p-id="17788"/><path d="M672.188685 249.015586c95.582853 34.0531 149.332653 147.782375 120.040542 254.037673-29.304351 106.210422-130.537562 164.725291-226.116335 130.68443-95.603251-34.04494-0.012239-89.887618 29.275793-196.146996 29.279873-106.230821-18.803251-222.644526 76.8-188.575107z" fill="#C9EDFF" fill-opacity=".2" p-id="17789"/><path d="M675.219888 291.432032c67.58808 23.633594 103.705498 112.501291 80.634901 198.447936-23.070598 85.946645-96.570135 136.485737-164.150056 112.831745-67.596239-23.658072 1.79506-71.826869 24.869737-157.785753 23.062438-85.954805-8.95898-177.152 58.645418-153.493928z" fill="#C9EDFF" fill-opacity=".2" p-id="17790"/><path d="M680.882486 367.624159c24.282263 9.142566 32.360032 56.552542 18.028112 105.867729-14.33192 49.315187-45.639394 81.883283-69.913498 72.744797-24.290422-9.158884 5.307665-40.172622 19.631426-89.491888 14.323761-49.323347 7.959458-98.275442 32.25396-89.120638z" fill="#C9EDFF" fill-opacity=".59" p-id="17791"/><path d="M357.575904 637.535873c-134.964016-26.248669-219.64596-150.78094-189.162581-278.14451 30.479299-127.383968 164.590661-209.361084 299.542438-183.104255 134.951777 26.24051 8.379665 104.32153-22.103713 231.693259-30.479299 127.375809 46.667474 255.808255-88.276144 229.555506z" fill="#81B1E8" p-id="17792"/><path d="M519.832988 197.689116c9.007936 41.46996-75.669928 94.897466-113.65992 183.426549-51.648765 120.354677 2.586518 260.010327-125.947921 211.249976a255.767458 255.767458 0 0 1-62.264095-34.053099c34.199968 39.226135 82.352446 68.081721 139.610773 79.223331 134.943618 26.256829 57.796845-102.179697 88.280223-229.555506 24.514805-102.39592 111.077482-172.92953 73.98094-210.291251z" fill="#6897DE" fill-opacity=".34" p-id="17793"/><path d="M263.527012 557.109036c-85.204143-41.359809-111.297785-154.505689-58.294566-252.695458 53.019538-98.169371 165.067984-144.237131 250.272128-102.865084 85.216382 41.376127-20.724781 85.424446-73.728 183.610135-53.007299 98.17753-33.02502 213.334693-118.249562 171.950407z" fill="#C9EDFF" fill-opacity=".2" p-id="17794"/><path d="M250.37004 484.837482c-51.909865-25.420494-61.962199-104.843729-22.487203-177.368223C267.378231 234.961084 341.469323 196.767108 393.358789 222.199841c51.918024 25.436813-18.154582 61.896924-57.637737 134.413259-39.487235 72.532653-33.437068 153.657116-85.351012 128.224382z" fill="#C9EDFF" fill-opacity=".2" p-id="17795"/><path d="M244.173004 414.736319c-22.568797-10.770359-20.398406-57.788685 4.842582-104.998757 25.236908-47.193753 63.99796-76.742884 86.554518-65.960287 22.564717 10.782598-14.115697 38.928319-39.352606 86.126151-25.245068 47.214151-29.475697 95.603251-52.044494 84.832893z" fill="#C9EDFF" fill-opacity=".2" p-id="17796"/><path d="M393.154805 505.700972c-80.532908-66.927171-91.507251-181.092972-24.535203-254.992319 66.976127-73.919745 186.555665-79.586422 267.064095-12.659251 80.532908 66.919012-32.576255 72.740717-99.556462 146.652303-66.976127 73.911586-62.455841 187.918279-142.97243 120.999267z" fill="#6897DE" p-id="17797"/><path d="M364.140112 458.095171C303.324303 372.85839 321.801179 259.659474 405.393849 205.261004c83.604908-54.406629 200.671363-29.418582 261.479012 55.81412 60.819888 85.232701-50.04545 62.039713-133.6422 116.442262-83.604908 54.410709-108.278821 165.806406-169.090549 80.577785z" fill="#81B1E8" p-id="17798"/><path d="M684.325737 300.097275c-16.755251 27.631681-91.552127 12.773482-158.940303 41.780016-91.613323 39.438279-134.837546 145.02859-180.305593 50.722677a194.743586 194.743586 0 0 1-16.559427-51.44886c-1.66043 39.601466 9.819793 80.781769 35.615618 116.944063 60.811729 85.228622 85.489721-26.167076 169.09055-80.573705 67.216829-43.738263 152.013004-37.341323 151.099155-77.424191z" fill="#6897DE" fill-opacity=".34" p-id="17799"/><path d="M354.328478 364.360414c-25.404175-67.506486 19.476398-143.702693 100.22961-170.179824 80.745052-26.456733 166.797769 6.813068 192.197864 74.327713 25.400096 67.522805-56.213928 36.341801-136.975299 62.814852-80.736892 26.468972-130.05208 100.576382-155.452175 33.037259z" fill="#C9EDFF" fill-opacity=".2" p-id="17800"/><path d="M384.938327 317.533833c-15.36408-41.253737 20.708462-90.409817 80.528828-109.788303 59.828526-19.370327 120.774884-1.644112 136.130805 39.601466 15.347761 41.270056-42.473562 24.690231-102.302087 44.068717-59.832606 19.378486-99.001625 67.380016-114.357546 26.11812z" fill="#C9EDFF" fill-opacity=".2" p-id="17801"/><path d="M418.248924 275.549833c-6.825307-17.775171 19.019474-42.616351 57.707092-55.475506 38.679458-12.850996 75.584255-8.865147 82.401402 8.914103 6.813068 17.783331-28.198757 14.111618-66.886374 26.962614-38.699857 12.863235-66.396813 37.37804-73.22212 19.598789z" fill="#C9EDFF" fill-opacity=".51" p-id="17802"/></svg>