<?xml version="1.0" standalone="no"?><!DOCTYPE svg PUBLIC "-//W3C//DTD SVG 1.1//EN" "http://www.w3.org/Graphics/SVG/1.1/DTD/svg11.dtd"><svg t="1639360770516" class="icon" viewBox="0 0 1024 1024" version="1.1" xmlns="http://www.w3.org/2000/svg" p-id="2652" xmlns:xlink="http://www.w3.org/1999/xlink" width="200" height="200"><defs><style type="text/css"/></defs><path d="M309.096296 490.192593l21.807408 68.266666 156.444444 36.977778 12.325926-11.377778V502.518519L483.555556 488.296296l-8.533334-7.585185-9.481481-5.688889H324.266667l-15.170371 15.170371z m201.007408-53.096297c13.274074 13.274074 164.02963 37.925926 180.148148-13.274074 0-1.896296-1.896296-2.844444-1.896296-2.844444-66.37037 28.444444-119.466667 26.548148-178.251852 16.118518z m196.266666-157.392592v-9.481482h66.370371l-2.844445 12.325926-18.962963 16.118519 14.222223 30.34074c3.792593-4.740741 9.481481-9.481481 15.17037-12.325926 15.17037-7.585185 39.822222-5.688889 39.822222-5.688888v61.629629s-20.859259 0.948148-35.081481 0l29.392592 64.474074c13.274074-3.792593 27.496296-6.637037 42.666667-6.637037 38.874074 0 73.955556 16.118519 99.555555 41.718519s41.718519 60.681481 41.718519 99.555555-16.118519 73.955556-41.718519 99.555556-60.681481 41.718519-99.555555 41.718518-73.955556-16.118519-99.555556-41.718518-41.718519-60.681481-41.718518-99.555556 16.118519-73.955556 41.718518-99.555555c8.533333-8.533333 17.066667-15.17037 27.496297-20.859259l-9.481482-21.807408-73.955555 79.644445v80.592592h-26.548149l-26.548148 52.148148v0.948148c-6.637037 10.42963-18.014815 17.066667-33.185185 19.911112-11.377778 1.896296-25.6 0.948148-41.718518-1.896297 11.377778-2.844444 19.911111-9.481481 24.651851-18.014815v-0.948148l4.740741-8.533333c2.844444 0 4.740741 0 7.585185-0.948148 5.688889-0.948148 10.42963-2.844444 11.377778-4.740741l18.962963-36.977778H616.296296l-26.548148 52.148148v0.948149c-6.637037 10.42963-18.014815 17.066667-33.185185 19.911111-11.377778 1.896296-25.6 0.948148-41.718519-1.896297 11.377778-2.844444 19.911111-9.481481 24.651852-18.014814v-0.948149l4.740741-8.533333c2.844444 0 4.740741 0 6.637037-0.948148 5.688889-0.948148 10.42963-2.844444 11.377778-4.740741l18.962963-36.977778H559.407407l-26.548148 52.148149v0.948148c-6.637037 10.42963-18.014815 17.066667-33.185185 19.911111-13.274074 1.896296-29.392593 0.948148-46.459259-2.844445l-157.392593-34.133333c-7.585185 18.014815-18.014815 35.081481-31.288889 48.355556-25.6 25.6-60.681481 41.718519-99.555555 41.718518S91.022222 701.62963 65.422222 676.02963c-27.496296-28.444444-43.614815-63.525926-43.614815-103.348149 0-38.874074 16.118519-73.955556 41.718519-99.555555s60.681481-41.718519 99.555555-41.718519 73.955556 16.118519 99.555556 41.718519 41.718519 60.681481 41.718519 99.555555c0 7.585185-0.948148 15.17037-1.896297 21.807408l156.444445 34.133333c14.222222 2.844444 26.548148 3.792593 36.029629 2.844445 5.688889-0.948148 10.42963-2.844444 11.377778-4.740741l18.962963-36.977778h-9.481481v2.844445l-2.844445 2.844444-18.014815 17.066667-2.844444 2.844444-4.740741-0.948148L322.37037 574.577778l-4.74074-0.948148-0.948149-4.740741-24.651851-77.748148-1.896297-4.740741 3.792593-3.792593 1.896296-1.896296C237.037037 400.118519 117.57037 392.533333 37.925926 463.644444c-4.740741-5.688889-8.533333-11.377778-13.274074-17.066666 45.511111-46.459259 113.777778-67.318519 194.37037-72.059259l-6.637037-8.533334c3.792593-12.325926 12.325926-20.859259 28.444445-19.911111 14.222222 13.274074 27.496296 26.548148 41.718518 39.822222 0 0 12.325926 11.377778 19.911111 12.325926 7.585185 0.948148 125.155556 3.792593 128 2.844445 2.844444-0.948148 27.496296-15.17037 27.496297-15.170371l18.962963 17.066667c0.948148-3.792593 1.896296-7.585185 3.792592-12.325926 6.637037-11.377778 57.837037-24.651852 108.088889-32.237037V350.814815c-3.792593 0-6.637037-2.844444-6.637037-6.637037 0-3.792593 2.844444-6.637037 6.637037-6.637037H616.296296c3.792593 0 6.637037 2.844444 6.637037 6.637037 0 3.792593-2.844444 6.637037-6.637037 6.637037v3.792592c29.392593-3.792593 54.992593-5.688889 64.474074-2.844444l10.42963-36.02963h28.444444l-7.585185-17.066666-55.94074-11.377778v5.688889h-8.533334V284.444444h-41.718518v-22.755555h41.718518v-8.533333h8.533334v16.118518l50.251851 10.42963z m132.740741 300.562963l-12.325926-27.496297c-4.740741 5.688889-6.637037 13.274074-6.637037 20.85926 0 9.481481 3.792593 18.014815 10.42963 24.651851 6.637037 6.637037 15.17037 10.42963 24.651852 10.42963s18.014815-3.792593 24.651851-10.42963c6.637037-6.637037 10.42963-15.17037 10.42963-24.651851s-3.792593-18.014815-10.42963-24.651852c-5.688889-5.688889-13.274074-9.481481-21.807407-10.42963l12.325926 27.496296-31.288889 14.222223z m-20.859259-46.45926l-16.118519-36.029629c-4.740741 2.844444-8.533333 6.637037-13.274074 10.429629-16.118519 16.118519-26.548148 39.822222-26.548148 64.474074 0 25.6 10.42963 48.355556 26.548148 64.474075 16.118519 16.118519 39.822222 26.548148 64.474074 26.548148 25.6 0 48.355556-10.42963 64.474074-26.548148 16.118519-16.118519 26.548148-39.822222 26.548149-64.474075 0-25.6-10.42963-48.355556-26.548149-64.474074-16.118519-16.118519-39.822222-26.548148-64.474074-26.548148-7.585185 0-15.17037 0.948148-21.807407 2.844445l16.118518 36.029629h5.688889c14.222222 0 27.496296 5.688889 37.925926 15.170371 9.481481 9.481481 15.17037 22.755556 15.170371 37.925926 0 14.222222-5.688889 28.444444-15.170371 37.925926s-22.755556 15.17037-37.925926 15.17037-27.496296-5.688889-37.925926-15.17037c-9.481481-9.481481-15.17037-22.755556-15.17037-37.925926 0-14.222222 5.688889-27.496296 15.17037-37.925926 1.896296-0.948148 2.844444-0.948148 2.844445-1.896297z m-652.325926 31.288889l31.288889 6.637037c0-9.481481-3.792593-17.066667-10.42963-23.703703-6.637037-6.637037-15.17037-10.42963-24.651852-10.42963s-18.014815 3.792593-24.651852 10.42963c-6.637037 6.637037-10.42963 15.17037-10.429629 24.651851s3.792593 18.014815 10.429629 24.651852c6.637037 6.637037 15.17037 10.42963 24.651852 10.42963 7.585185 0 15.17037-2.844444 20.85926-7.585185l-24.651852-5.688889 7.585185-29.392593z m50.251852 11.377778l37.925926 8.533333c0-3.792593 0.948148-7.585185 0.948148-11.377777 0-25.6-10.42963-48.355556-26.548148-64.474074-16.118519-16.118519-39.822222-26.548148-64.474074-26.548149-25.6 0-48.355556 10.42963-64.474074 26.548149-16.118519 16.118519-26.548148 39.822222-26.548149 64.474074 0 25.6 10.42963 48.355556 26.548149 64.474074 16.118519 16.118519 39.822222 26.548148 64.474074 26.548148 25.6 0 48.355556-10.42963 64.474074-26.548148 6.637037-6.637037 13.274074-15.17037 17.066666-23.703704l-39.822222-8.533333c-1.896296 1.896296-2.844444 3.792593-4.740741 5.688889-9.481481 9.481481-22.755556 15.17037-37.925926 15.17037-14.222222 0-28.444444-5.688889-37.925925-15.17037s-15.17037-22.755556-15.170371-37.925926c0-14.222222 5.688889-27.496296 15.170371-37.925926 9.481481-9.481481 22.755556-15.17037 37.925925-15.170371 14.222222 0 27.496296 5.688889 37.925926 15.170371 9.481481 9.481481 15.17037 22.755556 15.170371 37.925926v2.844444z" p-id="2653"/></svg>