<?xml version="1.0" standalone="no"?><!DOCTYPE svg PUBLIC "-//W3C//DTD SVG 1.1//EN" "http://www.w3.org/Graphics/SVG/1.1/DTD/svg11.dtd"><svg t="1756949098316" class="icon" viewBox="0 0 1024 1024" version="1.1" xmlns="http://www.w3.org/2000/svg" p-id="13686" xmlns:xlink="http://www.w3.org/1999/xlink" width="230" height="230"><path d="M529.558661 415.433642l52.086091-126.76374 42.635289-8.785605 9.362946 22.05187L556.543021 415.433642h-26.98436z" fill="#AEDAFD" p-id="13687"/><path d="M529.558661 415.433642l52.086091-126.76374 24.160415 18.512527L548.799137 415.433642h-19.240476z" fill="#7CC0F2" p-id="13688"/><path d="M605.805167 307.182429L581.644752 288.669902l42.635289-8.785605 9.362946 22.05187-27.83782 5.246262z" fill="#89CEF4" p-id="13689"/><path d="M496.098054 218.498014L588.058244 149.355297l36.272001 12.17434-1.870079 20.031181-105.690837 48.672255-20.671275-11.735059z" fill="#AEDAFD" p-id="13690"/><path d="M496.098054 218.498014L588.058244 149.355297l10.906702 23.909399-88.132176 53.592195-14.734716-8.358877z" fill="#7CC0F2" p-id="13691"/><path d="M598.964946 173.264696L588.058244 149.355297l36.272001 12.17434-1.870079 20.031181-23.49522-8.296122z" fill="#89CEF4" p-id="13692"/><path d="M524.03628 218.498014L432.063539 149.355297l-36.272001 12.17434 1.88263 20.031181 105.690837 48.659705 20.671275-11.722509z" fill="#7CC0F2" p-id="13693"/><path d="M524.03628 218.498014L432.063539 149.355297l-10.906702 23.909399 88.132176 53.592195 14.747267-8.358877z" fill="#AEDAFD" p-id="13694"/><path d="M421.156837 173.264696l10.906702-23.909399-36.272001 12.17434 1.88263 20.031181 23.482669-8.296122z" fill="#89CEF4" p-id="13695"/><path d="M544.067461 56.227877c-5.421974-5.258813-19.491494-36.510467-26.783547-53.215669a5.020346 5.020346 0 0 0-9.174682 0c-7.153993 16.065108-20.633623 45.68515-26.030495 53.366279-3.351081 4.78188-35.016914 16.780507-53.127813 23.35716a5.020346 5.020346 0 0 0-0.175712 9.375497c18.826298 7.530519 52.80149 21.687895 57.897142 27.034564 1.907732 2.008138 3.76526 7.405011 5.685542 14.35819a5.020346 5.020346 0 0 1 0.175712 1.280188v277.625141a20.081385 20.081385 0 0 0 20.081384 20.081384 20.081385 20.081385 0 0 0 20.081385-20.081384V135.160269a5.020346 5.020346 0 0 1 0.213365-1.455901c2.685885-8.923665 5.170957-15.914497 7.317154-17.571211 6.890425-5.421974 39.974506-18.826298 58.261117-25.95519a5.020346 5.020346 0 0 0 0-9.362945C580.75364 74.050105 549.56474 61.561994 544.067461 56.227877z" fill="#B6DFFC" p-id="13696"/><path d="M605.152522 480.145904L740.977987 461.871844l28.917194 32.531843-14.408394 19.140069-136.842084-10.028141-13.492181-23.369711z" fill="#AEDAFD" p-id="13697"/><path d="M605.152522 480.145904L740.977987 461.871844l-3.953523 30.17228-122.257979 4.756778-9.613963-16.654998z" fill="#7CC0F2" p-id="13698"/><path d="M737.024464 492.044124l3.953523-30.17228 28.917194 32.531843-14.408394 19.140069-18.462323-21.499632z" fill="#89CEF4" p-id="13699"/><path d="M758.975928 352.691866l105.853998 45.082709 7.605824 37.489434-18.299161 8.396529-94.984949-67.197333-0.175712-23.771339z" fill="#AEDAFD" p-id="13700"/><path d="M758.975928 352.691866l105.853998 45.082709-15.249301 21.399225-90.479189-49.538265-0.125508-16.943669z" fill="#7CC0F2" p-id="13701"/><path d="M849.580625 419.1738l15.249301-21.399225 7.605824 37.489434-18.299161 8.396529-4.555964-24.486738z" fill="#89CEF4" p-id="13702"/><path d="M772.945041 376.889935l13.893808-114.212875-28.678727-25.327646-16.416532 11.634652 10.705888 115.869589 20.495563 12.03628z" fill="#7CC0F2" p-id="13703"/><path d="M772.945041 376.889935l13.893808-114.212875-26.156003 2.497623-2.347012 103.13046 14.609207 8.584792z" fill="#AEDAFD" p-id="13704"/><path d="M760.682846 265.174683l26.156003-2.497623-28.678727-25.327646-16.416532 11.634652 18.939256 16.190617z" fill="#89CEF4" p-id="13705"/><path d="M923.49267 313.093886c1.844977-7.329705 21.863607-35.142423 32.695005-49.801833a5.020346 5.020346 0 0 0-4.555964-7.9698c-17.483355 1.832426-49.877139 5.020346-59.227534 4.141786-5.811051-0.514585-32.042359-21.938913-46.789626-34.339168a5.020346 5.020346 0 0 0-8.208266 4.543414c2.849046 20.081385 7.618375 56.56675 5.534932 63.657988-0.778154 2.660783-4.530862 6.978281-9.588861 12.099035a5.020346 5.020346 0 0 1-1.066824 0.828357l-240.436927 138.81257a20.081385 20.081385 0 0 0-7.354807 27.436192 20.081385 20.081385 0 0 0 27.436192 7.354807l237.525126-137.143305a5.020346 5.020346 0 0 1 1.368044-0.539688c9.074276-2.133647 16.316125-3.47659 18.901603-2.510173 8.145512 3.250674 36.25945 25.227239 51.609159 37.476884a5.020346 5.020346 0 0 0 8.082757-4.719125c-2.974555-18.675688-7.806638-51.897828-5.924009-59.327941z" fill="#B6DFFC" p-id="13706"/><path d="M586.916115 577.954797l83.739374 108.48968-13.718096 41.317449-23.771339-2.911801-59.742119-123.525616 13.49218-23.369712z" fill="#AEDAFD" p-id="13707"/><path d="M586.916115 577.954797l83.739374 108.48968-28.113939 11.672305-65.251949-103.494436 9.626514-16.667549z" fill="#7CC0F2" p-id="13708"/><path d="M642.54155 698.116782l28.113939-11.672305-13.718096 41.317449-23.771339-2.911801 9.375496-26.733343z" fill="#89CEF4" p-id="13709"/><path d="M774.200127 647.448939l13.893808 114.212874-28.678727 25.327646-16.416532-11.634652 10.705888-115.869589 20.495563-12.036279z" fill="#AEDAFD" p-id="13710"/><path d="M774.200127 647.448939l13.893808 114.212874-26.156003-2.497622-2.359563-103.130461 14.621758-8.584791z" fill="#7CC0F2" p-id="13711"/><path d="M761.937932 759.164191l26.156003 2.497622-28.678727 25.327646-16.416532-11.634652 18.939256-16.190616z" fill="#89CEF4" p-id="13712"/><path d="M760.231014 671.647007l105.853999-45.070157 7.605824-37.501986-18.299162-8.396529-94.984949 67.209884-0.175712 23.758788z" fill="#7CC0F2" p-id="13713"/><path d="M760.231014 671.647007l105.853999-45.070157-15.249302-21.399226-90.479188 49.525715-0.125509 16.943668z" fill="#AEDAFD" p-id="13714"/><path d="M850.835711 605.177624l15.249302 21.399226 7.605824-37.501986-18.299162-8.396529-4.555964 24.499289z" fill="#89CEF4" p-id="13715"/><path d="M921.647693 716.378291c-2.510173-5.283914 2.974555-38.71942 6.338187-57.733981a5.020346 5.020346 0 0 0-8.032554-4.832083c-15.927048 12.488111-45.183115 34.878855-52.36221 36.623425-2.685885 0.652645-8.308673-0.43928-15.274403-2.259155a5.020346 5.020346 0 0 1-1.255086-0.514586L610.637251 548.899544a20.081385 20.081385 0 0 0-27.436192 7.354807 20.081385 20.081385 0 0 0 7.354807 27.360887l237.525126 137.193508a5.020346 5.020346 0 0 1 1.15468 0.916214c6.37584 6.790018 11.195372 12.437908 11.584449 15.136343 1.255087 8.685199-3.76526 44.015885-6.651959 63.432073a5.020346 5.020346 0 0 0 8.132961 4.643821c14.722165-11.935873 41.078982-32.720106 48.458891-34.816101s41.417856 1.380595 59.47855 3.413836a5.020346 5.020346 0 0 0 4.618719-7.932147c-10.341913-14.232681-29.243516-40.715007-33.20959-49.224494z" fill="#B6DFFC" p-id="13716"/><path d="M495.596019 608.566358l-52.086091 126.76374-42.63529 8.785605-9.375496-22.05187 77.112517-113.497475h26.98436z" fill="#AEDAFD" p-id="13717"/><path d="M495.596019 608.566358l-52.086091 126.76374-24.160416-18.512527 56.99348-108.251213h19.253027z" fill="#7CC0F2" p-id="13718"/><path d="M419.349512 716.817571l24.160416 18.512527-42.63529 8.785605-9.375496-22.05187 27.85037-5.246262z" fill="#89CEF4" p-id="13719"/><path d="M529.056626 805.501986l-91.972741 69.142717-36.272001-12.17434 1.88263-20.031181 105.690837-48.659705 20.671275 11.722509z" fill="#AEDAFD" p-id="13720"/><path d="M529.056626 805.501986l-91.972741 69.142717-10.906702-23.909399 88.132176-53.592195 14.747267 8.358877z" fill="#7CC0F2" p-id="13721"/><path d="M426.177183 850.735304l10.906702 23.909399-36.272001-12.17434 1.88263-20.031181 23.482669 8.296122z" fill="#89CEF4" p-id="13722"/><path d="M501.105849 805.501986l91.972741 69.142717 36.272001-12.17434-1.870079-20.031181-105.690837-48.659705-20.683826 11.722509z" fill="#7CC0F2" p-id="13723"/><path d="M501.105849 805.501986l91.972741 69.142717 10.906702-23.909399-88.132176-53.592195-14.747267 8.358877z" fill="#AEDAFD" p-id="13724"/><path d="M603.985292 850.735304l-10.906702 23.909399 36.272001-12.17434-1.870079-20.031181-23.49522 8.296122z" fill="#89CEF4" p-id="13725"/><path d="M538.482326 907.891945c-1.907732-2.008138-3.76526-7.405011-5.685542-14.35819a5.020346 5.020346 0 0 1-0.175712-1.330392V614.565671a20.081385 20.081385 0 0 0-20.081385-20.081384 20.081385 20.081385 0 0 0-20.081384 20.081384v274.27406a5.020346 5.020346 0 0 1-0.213365 1.455901c-2.685885 8.923665-5.170957 15.914497-7.317155 17.571211-6.890425 5.421974-39.974506 18.826298-58.261116 25.95519a5.020346 5.020346 0 0 0 0 9.362945c17.69672 6.790018 48.88562 19.215375 54.382899 24.549493s19.491494 36.510467 26.783547 53.215669a5.020346 5.020346 0 0 0 9.174682 0c7.153993-16.065108 20.633623-45.68515 26.030495-53.36628 3.351081-4.78188 35.016914-16.780507 53.127813-23.35716a5.020346 5.020346 0 0 0 0.175712-9.375496c-18.725891-7.467765-52.751287-21.61259-57.859489-26.959259z" fill="#B6DFFC" p-id="13726"/><path d="M420.91837 547.293033l-135.825464 18.27406-28.929745-32.531843 14.408394-19.140069 136.854635 10.028141 13.49218 23.369711z" fill="#AEDAFD" p-id="13727"/><path d="M420.91837 547.293033l-135.825464 18.27406 3.953522-30.184831 122.245429-4.756778 9.626513 16.667549z" fill="#7CC0F2" p-id="13728"/><path d="M289.046428 535.382262l-3.953522 30.184831-28.929745-32.531843 14.408394-19.140069 18.474873 21.487081z" fill="#89CEF4" p-id="13729"/><path d="M267.094965 674.73452l-105.866549-45.070158-7.593274-37.501985 18.286611-8.396529 94.9975 67.209884 0.175712 23.758788z" fill="#AEDAFD" p-id="13730"/><path d="M267.094965 674.73452l-105.866549-45.070158 15.249301-21.399225 90.491739 49.525715 0.125509 16.943668z" fill="#7CC0F2" p-id="13731"/><path d="M176.477717 608.265137l-15.249301 21.399225-7.593274-37.501985 18.286611-8.396529 4.555964 24.499289z" fill="#89CEF4" p-id="13732"/><path d="M253.125852 650.536451l-13.893808 114.225426 28.666176 25.327646 16.416532-11.647203-10.705888-115.869589-20.483012-12.03628z" fill="#7CC0F2" p-id="13733"/><path d="M253.125852 650.536451l-13.893808 114.225426 26.156003-2.510173 2.347012-103.130461-14.609207-8.584792z" fill="#AEDAFD" p-id="13734"/><path d="M265.388047 762.251704l-26.156003 2.510173 28.666176 25.327646 16.416532-11.647203-18.926705-16.190616z" fill="#89CEF4" p-id="13735"/><path d="M444.087268 559.266559l-2.510173-4.317498a20.169241 20.169241 0 0 0-27.473845-7.354807L176.628328 684.699907a5.095651 5.095651 0 0 1-1.380595 0.539687c-9.074276 2.133647-16.316125 3.47659-18.901604 2.510173-8.132961-3.250674-36.184145-25.164485-51.546404-37.439231a5.020346 5.020346 0 0 0-8.13296 4.744227c2.974555 18.738442 7.781537 51.885277 5.911457 59.302839s-21.825955 35.067118-32.63225 49.75163a5.020346 5.020346 0 0 0 4.581066 8.007452c17.508457-1.832426 49.826935-5.020346 59.164779-4.129235 5.7985 0.514585 31.979605 21.876158 46.726872 34.288964a5.020346 5.020346 0 0 0 8.245919-4.568515c-2.849046-20.081385-7.593274-56.478894-5.522381-63.582684 0.778154-2.660783 4.530862-6.96573 9.588861-12.099034a5.108202 5.108202 0 0 1 1.079374-0.828357L438.564887 579.849978a15.061038 15.061038 0 0 0 5.522381-20.583419z" fill="#B6DFFC" p-id="13736"/><path d="M435.728391 448.555376l-83.739373-108.48968 13.705545-41.317449 23.78389 2.911801 59.742119 123.525617-13.492181 23.369711z" fill="#AEDAFD" p-id="13737"/><path d="M435.728391 448.555376l-83.739373-108.48968 28.113938-11.672305 65.239398 103.494436-9.613963 16.667549z" fill="#7CC0F2" p-id="13738"/><path d="M380.102956 328.393391l-28.113938 11.672305 13.705545-41.317449 23.78389 2.911801-9.375497 26.733343z" fill="#89CEF4" p-id="13739"/><path d="M248.444379 379.061234l-13.893808-114.212874 28.678727-25.327646 16.403981 11.634652-10.705888 115.869589-20.483012 12.036279z" fill="#AEDAFD" p-id="13740"/><path d="M248.444379 379.061234l-13.893808-114.212874 26.156003 2.497622 2.347012 103.130461-14.609207 8.584791z" fill="#7CC0F2" p-id="13741"/><path d="M260.706574 267.345982l-26.156003-2.497622 28.678727-25.327646 16.403981 11.634652-18.926705 16.190616z" fill="#89CEF4" p-id="13742"/><path d="M262.413492 354.863166l-105.866549 45.070158-7.593273 37.501985 18.28661 8.396529 94.984949-67.197333 0.188263-23.771339z" fill="#7CC0F2" p-id="13743"/><path d="M262.413492 354.863166l-105.866549 45.070158 15.249302 21.399225 90.491739-49.525715 0.125508-16.943668z" fill="#AEDAFD" p-id="13744"/><path d="M171.796245 421.332549l-15.249302-21.399225-7.593273 37.501985 18.28661 8.396529 4.555965-24.499289z" fill="#89CEF4" p-id="13745"/><path d="M432.08864 442.81963L194.576065 305.688876a5.020346 5.020346 0 0 1-1.15468-0.916213c-6.37584-6.790018-11.195372-12.437908-11.584448-15.136344-1.255087-8.685199 3.76526-44.015885 6.651958-63.432073a5.020346 5.020346 0 0 0-8.13296-4.64382c-14.722165 11.935873-41.078982 32.720106-48.458891 34.8161s-41.417856-1.380595-59.478551-3.413835a5.020346 5.020346 0 0 0-4.618719 7.932146c10.329362 14.232681 29.243516 40.715007 33.197039 49.224494 2.510173 5.283914-2.974555 38.71942-6.338187 57.733981a5.020346 5.020346 0 0 0 8.032554 4.832083c15.927048-12.488111 45.183115-34.878855 52.36221-36.623425 2.685885-0.652645 8.308673 0.43928 15.274403 2.259156a5.020346 5.020346 0 0 1 1.255087 0.514585l240.436927 138.812571a20.081385 20.081385 0 0 0 27.436191-7.354807 20.081385 20.081385 0 0 0-7.367358-27.473845z" fill="#B6DFFC" p-id="13746"/><path d="M511.322253 513.255087m-112.957788 0a112.957788 112.957788 0 1 0 225.915576 0 112.957788 112.957788 0 1 0-225.915576 0Z" fill="#C5E9FF" p-id="13747"/></svg>