<?xml version="1.0" standalone="no"?><!DOCTYPE svg PUBLIC "-//W3C//DTD SVG 1.1//EN"
        "http://www.w3.org/Graphics/SVG/1.1/DTD/svg11.dtd"><svg t="1631095442894" class="icon" viewBox="0 0 1024 1024" version="1.1" xmlns="http://www.w3.org/2000/svg" p-id="6371" xmlns:xlink="http://www.w3.org/1999/xlink" width="200" height="200"><defs><style type="text/css"/></defs><path d="M512 1024C230.4 1024 0 793.6 0 512S230.4 0 512 0s512 230.4 512 512-230.4 512-512 512z" p-id="6372"/><path d="M1024 512c0-35.528-3.688-70.232-10.664-103.768L725.904 258.56 520.568 176.4s-27.344-17.352-79.592 93c-43.16 91.176-63.712 140.816-63.712 140.816s-10.784 20.776 4.112 42.048c14.904 21.272 53.44 34.944 53.44 34.944s-11.304 12.6-10.272 26.304c1.024 13.712 46.248 27.384 46.248 27.384l-24.976 62.16-20.752 39.144 10.784 21.272-20.552 8.616 2.056 28.872-20.56 8.64 4.112 25.832-21.584 11.656 8.224 21.776-31.856 19.248 21.584 66.864 115.448 168.536c6.408 0.24 12.816 0.488 19.28 0.488 281.6 0 512-230.4 512-512z" p-id="6373"/><path d="M774.704 291.864L535.712 183.376c-24.408-11.08-53.448-0.176-64.528 24.232l-91.328 201.184c-11.08 24.408-0.176 53.448 24.232 64.528l238.984 108.496c24.408 11.08 53.448 0.176 64.528-24.232l91.328-201.192c11.088-24.408 0.184-53.448-24.224-64.528M689.4 330.312c-5.544 12.208-20.056 17.656-32.264 12.112l-82.096-37.272c-12.208-5.544-17.656-20.064-12.112-32.264 5.544-12.208 20.056-17.656 32.264-12.112l82.104 37.272c12.2 5.536 17.648 20.056 12.104 32.264" p-id="6374"/><path d="M663.136 593.072c-7.68 0-15.48-1.6-22.92-4.968l-238.992-108.488c-13.488-6.128-23.8-17.184-29.032-31.128-5.232-13.952-4.744-29.064 1.376-42.552l91.328-201.192c12.688-27.936 45.736-40.328 73.68-27.664l238.984 108.496c27.936 12.68 40.344 45.736 27.664 73.672l-91.328 201.184c-9.312 20.504-29.584 32.64-50.76 32.64m-147.44-407.136c-4.976 0-9.984 0.896-14.816 2.712-10.496 3.944-18.808 11.688-23.4 21.816l-91.336 201.184c-9.536 21-0.208 45.84 20.792 55.376l238.992 108.496c20.984 9.552 45.84 0.208 55.384-20.8l91.328-201.176c9.536-21.008 0.216-45.848-20.792-55.384L532.864 189.664a41.538 41.538 0 0 0-17.168-3.728m151.448 165.576c-4.384 0-8.752-0.936-12.856-2.792l-82.104-37.272c-15.704-7.128-22.688-25.712-15.56-41.408 7.136-15.704 25.704-22.672 41.408-15.552l82.104 37.272c15.704 7.128 22.688 25.704 15.56 41.408-3.448 7.584-9.656 13.384-17.496 16.328a31.548 31.548 0 0 1-11.056 2.016m-81.968-86a17.512 17.512 0 0 0-6.192 1.136c-4.384 1.648-7.856 4.872-9.768 9.096-3.984 8.768-0.088 19.136 8.68 23.12L660 336.128c4.208 1.92 8.944 2.072 13.352 0.424a17.328 17.328 0 0 0 9.76-9.104c3.984-8.768 0.088-19.128-8.68-23.112l-82.104-37.272a17.168 17.168 0 0 0-7.152-1.552" p-id="6375"/><path d="M622.648 528.376c23.64 10.728 51.752 0.168 62.48-23.464l22.432-49.416c10.728-23.632 0.168-51.752-23.464-62.48l-164.384-74.624c-11.816-5.36-19.936-5.72-24.928-4.704-5 1.024-20.592-7.8-45.656 44.92l-14.104 31.072c-11.08 24.408-0.176 53.448 24.232 64.528l108.728 49.36 54.664 24.808z" p-id="6376"/><path d="M596.504 560l-146.456-66.488c-8.544-3.88-18.704-0.056-22.584 8.488-3.88 8.544-0.064 18.704 8.48 22.584l34.392 15.608-47.4 104.416 15.56 18.072-28.096 8.656 11.984 26.848-28.096 8.656 11.984 26.848-28.096 8.656 11.984 26.848-23.848 0.184-6.768 14.912 16.672 66.448 60.992-31.192 110.808-244.088 34.392 15.616c8.544 3.872 18.712 0.056 22.584-8.488 3.872-8.544 0.056-18.704-8.488-22.584" fill="#DFDEDE" p-id="6377"/><path d="M376.208 857.632a6.914 6.914 0 0 1-6.704-5.224l-16.672-66.448a6.87 6.87 0 0 1 0.408-4.536l6.776-14.912a6.902 6.902 0 0 1 6.24-4.048l13.28-0.104-7.68-17.2a6.908 6.908 0 0 1 4.28-9.416l20.648-6.368-8.8-19.728a6.94 6.94 0 0 1 0.016-5.672 6.932 6.932 0 0 1 4.256-3.744l20.648-6.36-8.8-19.728a6.94 6.94 0 0 1 0.016-5.672 6.932 6.932 0 0 1 4.256-3.744l18.008-5.544-8.672-10.064a6.924 6.924 0 0 1-1.056-7.368l44.552-98.128-28.104-12.76a23.77 23.77 0 0 1-12.52-13.4 23.832 23.832 0 0 1 0.6-18.328c2.632-5.808 7.4-10.248 13.4-12.504 6.016-2.264 12.52-2.056 18.328 0.6l146.456 66.472v0.008c5.808 2.632 10.248 7.4 12.512 13.4 2.256 6.016 2.048 12.52-0.592 18.336-2.632 5.808-7.392 10.248-13.4 12.504-6.016 2.248-12.52 2.056-18.328-0.6l-28.112-12.76L443.496 822.4a6.874 6.874 0 0 1-3.152 3.288l-60.984 31.184a6.856 6.856 0 0 1-3.152 0.76m-9.384-72.688l13.968 55.68 51.112-26.136 109.8-241.896a6.946 6.946 0 0 1 9.152-3.432l34.4 15.616c2.448 1.112 5.2 1.2 7.76 0.24a10.056 10.056 0 0 0 5.672-5.28c1.112-2.456 1.2-5.208 0.248-7.76a10.124 10.124 0 0 0-5.288-5.688l-146.448-66.48a10.11 10.11 0 0 0-7.76-0.248 10.07 10.07 0 0 0-5.672 5.288 10.112 10.112 0 0 0-0.248 7.76 10.046 10.046 0 0 0 5.288 5.672l34.392 15.624a6.908 6.908 0 0 1 3.432 9.144l-45.584 100.392 12.688 14.72a6.916 6.916 0 0 1-3.2 11.112l-20.648 6.352 8.8 19.728a6.908 6.908 0 0 1-4.28 9.416l-20.648 6.352 8.8 19.728a6.908 6.908 0 0 1-4.28 9.416l-20.648 6.36 8.8 19.728a6.916 6.916 0 0 1-0.504 6.552 6.882 6.882 0 0 1-5.76 3.176l-19.424 0.136-3.92 8.728z" fill="#474341" p-id="6378"/><path d="M523.616 557.072l21.12 10.56-112.504 245.32-41.84 23.152z" fill="#AEABAA" p-id="6379"/><path d="M410.936 802.64a4.84 4.84 0 0 1-4.408-6.832l4.824-10.616c5.096-11.24 8.6-18.952 11.136-24.176 0.072-0.384 0.192-0.768 0.352-1.136l2.736-6.016 0.552 0.248c2.568-4.192 3.656-3.688 5.864-2.68 3.016 1.368 3.44 2.936 2.256 6.368l0.136 0.056c-0.056 0.128-0.656 1.44-1.792 3.952-0.296 0.648-0.6 1.328-0.936 2.072-0.04 0.056-0.064 0.128-0.088 0.184-2.344 5.168-6.152 13.544-11.408 25.12l-4.816 10.624a4.852 4.852 0 0 1-4.408 2.832M440.752 736.984a4.82 4.82 0 0 1-2-0.432 4.848 4.848 0 0 1-2.408-6.4l5.528-12.2c1.12-2.44 4-3.504 6.408-2.408a4.84 4.84 0 0 1 2.408 6.4l-5.528 12.192a4.844 4.844 0 0 1-4.408 2.848M454.44 706.824a4.82 4.82 0 0 1-2-0.432 4.848 4.848 0 0 1-2.408-6.4l24.464-53.896a4.852 4.852 0 0 1 6.408-2.408 4.84 4.84 0 0 1 2.408 6.4l-24.464 53.896a4.838 4.838 0 0 1-4.408 2.84M485.752 637.84a4.824 4.824 0 0 1-4.392-6.84l14.16-31.2c1.104-2.44 4-3.504 6.408-2.408a4.848 4.848 0 0 1 2.408 6.4l-14.184 31.208a4.844 4.844 0 0 1-4.4 2.84M640.448 535.8a51.88 51.88 0 0 1-21.432-4.648 4.848 4.848 0 0 1-2.408-6.4 4.846 4.846 0 0 1 6.4-2.408c10.256 4.648 21.768 5.016 32.392 1.024 10.624-3.984 19.04-11.832 23.688-22.088l22.432-49.416c9.664-21.272 0.216-46.424-21.056-56.072L516.08 321.16c-10.264-4.656-21.768-5.024-32.376-1.024a4.84 4.84 0 0 1-3.408-9.056c13.048-4.888 27.176-4.44 39.784 1.28l164.392 74.624c26.12 11.856 37.72 42.76 25.872 68.88l-22.44 49.416c-8.696 19.168-27.656 30.52-47.456 30.52M566.368 506.768c-0.672 0-1.352-0.136-2-0.432l-108.736-49.36c-12.984-5.896-22.904-16.536-27.952-29.968-5.048-13.44-4.576-27.984 1.312-40.96l14.096-31.072a4.812 4.812 0 0 1 6.4-2.4 4.84 4.84 0 0 1 2.408 6.4l-14.096 31.072c-10.008 22.04-0.216 48.12 21.816 58.12l108.744 49.36a4.84 4.84 0 0 1 2.408 6.4 4.826 4.826 0 0 1-4.4 2.84M651.528 309.128c-11.16 0-22.216-2.744-32.416-8.168-16.312-8.688-28.272-23.216-33.664-40.896s-3.568-36.408 5.12-52.72c8.68-16.312 23.208-28.272 40.88-33.664 17.68-5.384 36.424-3.576 52.728 5.112 27.664 14.728 42 46.312 34.88 76.808a4.82 4.82 0 0 1-5.816 3.608 4.83 4.83 0 0 1-3.6-5.808c6.128-26.232-6.208-53.4-30.008-66.072-14.032-7.48-30.128-9.04-45.352-4.4-15.216 4.64-27.712 14.92-35.184 28.952-7.472 14.032-9.032 30.144-4.4 45.352 4.64 15.216 14.928 27.704 28.968 35.176 14.568 7.768 31.216 9.144 46.904 3.904a4.832 4.832 0 0 1 3.064 9.16 68.842 68.842 0 0 1-22.104 3.656" fill="#474341" p-id="6380"/></svg>