<?xml version="1.0" standalone="no"?><!DOCTYPE svg PUBLIC "-//W3C//DTD SVG 1.1//EN" "http://www.w3.org/Graphics/SVG/1.1/DTD/svg11.dtd"><svg t="1756113722461" class="icon" viewBox="0 0 1024 1024" version="1.1" xmlns="http://www.w3.org/2000/svg" p-id="3020" xmlns:xlink="http://www.w3.org/1999/xlink" width="230" height="230"><path d="M800.500545 86.935019C908.472363 168.459594 997.979618 272.487525 1018.648117 410.534118c15.079568 183.970732-12.46437 320.077017-133.459451 463.617634-84.424492 90.994122-192.891932 144.489681-316.354578 151.333485-175.966962 5.905285-302.371706-32.753244-433.342502-154.265037C30.113876 759.895023 0.893258 638.119601 1.884503 489.306408c4.334058-148.92919 65.98102-265.727301 173.81575-367.772743 175.650607-144.489681 434.460288-160.919029 624.800292-34.598646z" fill="#F0F0F0" p-id="3021"/><path d="M782.289067 121.649662C843.366591 165.538587 892.454276 221.638799 934.286896 283.992286v21.090305H90.674688c41.737714-104.344285 121.722697-173.024864 221.448204-221.448204l26.151979-13.181441c153.822141-67.014445 305.830516-34.588101 444.014196 51.196716z" fill="#212123" p-id="3022"/><path d="M90.674688 726.888696h843.612208c-41.44245 103.606124-121.62779 174.12156-221.448204 221.448205-121.311436 48.982234-249.867391 64.683966-373.076955 13.18144C229.448896 908.89803 137.495165 843.929345 90.674688 726.888696z" fill="#FEAF05" p-id="3023"/><path d="M90.674688 726.888696h843.612208l-21.090305 52.725763h-31.635458l10.545153-21.090305c-98.628812 1.128331-197.257625 2.319934-295.896982 3.585352-45.787053 0.579983-91.58465 1.138876-137.371703 1.655589-44.173644 0.506167-88.347289 1.054515-132.510388 1.645043-16.872244 0.210903-33.755034 0.421806-50.627278 0.590529-23.589506 0.253084-47.168468 0.569438-70.757974 0.906883-13.434524 0.158177-26.879594 0.316355-40.725379 0.495622-30.602033-0.463987-30.602033-0.463987-52.451589 12.211287l-21.090305-52.725763z" fill="#FDB334" p-id="3024"/><path d="M828.83537 104.724692c51.692338 43.540935 93.95731 82.652906 115.996679 147.632136l-31.635458 21.090306-12.44328-18.169298C829.151725 156.469756 743.10328 101.803685 628.477471 62.544081l42.18061-10.545152c6.706717-2.478111 13.402889-4.956222 20.309964-7.487059C741.025885 37.509889 789.037964 77.940004 828.83537 104.724692z" fill="#EBEBEB" p-id="3025"/><path d="M513.145137 5.863886l26.784687-0.442896C602.631302 5.884976 654.661085 18.359892 712.838692 41.453776l-10.545153 21.090305-39.0487-5.188215c-63.429093-7.033617-126.552376-6.89653-190.308369-6.675081l-35.463348-0.126542-34.229566 0.04218-30.802391 0.042181C344.285608 51.977838 318.471074 56.25917 291.032587 62.544081c13.634882-27.269765 22.250272-28.34537 50.75382-38.226178C398.804047 8.162729 454.27155 6.348963 513.145137 5.863886z" fill="#F3F3F3" p-id="3026"/><path d="M797.199913 885.065985c21.75465 4.618777 21.75465 4.618777 42.18061 10.545153-33.343773 50.005114-68.912572 78.877742-126.541831 94.906373-49.435675 3.353359-98.175371 2.499201-147.632137 0v-10.545153l24.348757-5.061673C661.895059 958.565699 742.734199 939.531698 797.199913 885.065985z" fill="#F4EBE1" p-id="3027"/><path d="M428.119571 41.453776c-28.145012 18.770372-51.038539 29.210073-82.389277 40.862467C301.59883 99.462661 266.388566 119.878076 227.761672 146.905302h-21.090306c9.227009-41.526811 14.267591-58.873587 50.75382-82.389277C316.256592 42.592653 365.892626 40.399261 428.119571 41.453776z" fill="#E4E4E4" p-id="3028"/><path d="M385.938961 948.336901h253.083662l-42.18061 21.090305-31.635458 21.090305c-31.962358 2.805011-31.962358 2.805011-68.543492 2.636288l-36.581134 0.168723C428.119571 990.517511 428.119571 990.517511 396.484113 969.427206l-10.545152-21.090305z" fill="#FEB430" p-id="3029"/><path d="M762.928167 67.162858l25.540359 15.111204L807.745065 94.179539l-21.090305 21.090305c-38.268359 0-61.815685-11.283313-96.888862-26.362881L655.051255 74.080478 628.477471 62.544081l42.18061-10.545152 20.594683-7.539784c30.728575-4.281332 45.481243 6.907075 71.675403 22.693168z" fill="#DFDFDF" p-id="3030"/><path d="M269.942282 927.246595l126.541831 42.180611v10.545152c-90.382503-9.037196-90.382503-9.037196-126.541831-31.635457v-21.090306z" fill="#F3E6D8" p-id="3031"/><path d="M69.584382 737.433848l21.090306 42.180611h21.090305l10.545152 42.18061-21.090305 10.545153-42.18061-84.361221 10.545152-10.545153z" fill="#F5F6F6" p-id="3032"/><path d="M143.400451 210.176218c-12.148016 26.025437-21.596473 42.686778-42.180611 63.270916l-21.090305-42.180611c39.544322-21.090305 39.544322-21.090305 63.270916-21.090305z" fill="#E3E3E3" p-id="3033"/><path d="M122.310145 863.97568l42.180611 42.18061-42.180611-21.090305v-21.090305zM892.106286 863.97568v31.635458h-31.635458l31.635458-31.635458zM860.470828 125.814997l42.180611 21.090305-10.545153 21.090305-31.635458-42.18061zM143.400451 125.814997l21.090305 10.545153-42.180611 31.635457 21.090306-42.18061zM807.745065 937.791748l21.090305 10.545153h-31.635457l10.545152-10.545153zM196.126214 937.791748l31.635458 10.545153h-31.635458v-10.545153zM69.584382 800.704764l21.090306 10.545153-10.545153 21.090305-10.545153-31.635458zM944.832049 800.704764v31.635458zM934.286896 199.631065l21.090306 10.545153-10.545153 21.090305-10.545153-31.635458zM80.129535 199.631065v31.635458zM797.199913 73.089234l31.635457 10.545153h-31.635457V73.089234zM206.671366 73.089234l21.090306 10.545153h-31.635458l10.545152-10.545153zM670.658081 1011.607816l31.635458 10.545153zM322.668045 1011.607816l31.635458 10.545153zM670.658081 9.818318l31.635458 10.545153zM322.668045 9.818318l31.635458 10.545153z" fill="#FFFFFF" p-id="3034"/><path d="M702.293539 1001.062664l21.090305 10.545152zM301.57774 1001.062664l21.090305 10.545152z" fill="#EFEFEF" p-id="3035"/><path d="M723.383844 990.517511l21.090305 10.545153zM280.487435 990.517511l21.090305 10.545153zM776.109607 958.882053l21.090306 10.545153zM227.761672 958.882053l21.090305 10.545153zM776.109607 62.544081l21.090306 10.545153zM227.761672 62.544081l21.090305 10.545153zM723.383844 30.908624l21.090305 10.545152zM280.487435 30.908624l21.090305 10.545152z" fill="#FFFFFF" p-id="3036"/><path d="M702.293539 20.363471l21.090305 10.545153zM301.57774 20.363471l21.090305 10.545153z" fill="#EFEFEF" p-id="3037"/></svg>